<?xml version="1.0" encoding="UTF-8" standalone="no"?>
<!DOCTYPE svg PUBLIC "-//W3C//DTD SVG 1.1//EN" "http://www.w3.org/Graphics/SVG/1.1/DTD/svg11.dtd">
<svg width="100%" height="100%" viewBox="0 0 512 512" version="1.1" xmlns="http://www.w3.org/2000/svg" xmlns:xlink="http://www.w3.org/1999/xlink" xml:space="preserve" xmlns:serif="http://www.serif.com/" style="fill-rule:evenodd;clip-rule:evenodd;stroke-linejoin:round;stroke-miterlimit:2;">
    <g id="database_server">
        <path d="M350.56,160.08C347.242,150.485 338.153,144.007 328,144L320,144L320,128L328,128C341.151,127.961 351.961,117.151 352,104L352,40C351.961,26.849 341.151,16.039 328,16L40,16C26.849,16.039 16.039,26.849 16,40L16,104C16.039,117.151 26.849,127.961 40,128L48,128L48,144L40,144C26.849,144.039 16.039,154.849 16,168L16,232C16.039,245.151 26.849,255.961 40,256L48,256L48,272L40,272C26.849,272.039 16.039,282.849 16,296L16,360C16.039,373.151 26.849,383.961 40,384L192,384L192,448C192,479.52 268.48,496 344,496C419.52,496 496,479.52 496,448L496,208C496,177.36 423.92,161.04 350.56,160.08ZM40,112C35.611,112 32,108.389 32,104L32,40C32,35.611 35.611,32 40,32L328,32C332.389,32 336,35.611 336,40L336,104C336,108.389 332.389,112 328,112L40,112ZM304,128L304,144L272,144L272,128L304,128ZM256,128L256,144L112,144L112,128L256,128ZM96,128L96,144L64,144L64,128L96,128ZM192,368L40,368C35.611,368 32,364.389 32,360L32,296C32,291.611 35.611,288 40,288L192,288L192,368ZM64,272L64,256L96,256L96,272L64,272ZM192,272L112,272L112,256L192,256L192,272ZM192,208L192,240L40,240C35.611,240 32,236.389 32,232L32,168C32,163.611 35.611,160 40,160L328,160C328.381,160.042 328.756,160.122 329.12,160.24C258.72,162.24 192,178.56 192,208ZM480,448C480,458.88 432,480 344,480C256,480 208,458.88 208,448L208,390.56C234.32,407.28 289.28,416 344,416C398.72,416 453.68,407.28 480,390.56L480,448ZM480,368C480,378.88 432,400 344,400C256,400 208,378.88 208,368L208,310.56C234.32,327.28 289.28,336 344,336C398.72,336 453.68,327.28 480,310.56L480,368ZM480,288C480,298.88 432,320 344,320C256,320 208,298.88 208,288L208,230.56C234.32,247.28 289.28,256 344,256C398.72,256 453.68,247.28 480,230.56L480,288ZM344,240C256,240 208,218.88 208,208C208,197.12 256,176 344,176C432,176 480,197.12 480,208C480,218.88 432,240 344,240Z" style="fill:white;fill-rule:nonzero;"/>
        <rect x="336" y="280" width="16" height="16" style="fill:white;fill-rule:nonzero;"/>
        <rect x="336" y="368" width="16" height="16" style="fill:white;fill-rule:nonzero;"/>
        <rect x="336" y="440" width="16" height="16" style="fill:white;fill-rule:nonzero;"/>
        <path d="M88,176L56,176C51.611,176 48,179.611 48,184L48,216C48,220.389 51.611,224 56,224L88,224C92.389,224 96,220.389 96,216L96,184C96,179.611 92.389,176 88,176ZM80,208L64,208L64,192L80,192L80,208Z" style="fill:white;fill-rule:nonzero;"/>
        <path d="M152,176L120,176C115.611,176 112,179.611 112,184L112,216C112,220.389 115.611,224 120,224L152,224C156.389,224 160,220.389 160,216L160,184C160,179.611 156.389,176 152,176ZM144,208L128,208L128,192L144,192L144,208Z" style="fill:white;fill-rule:nonzero;"/>
        <path d="M88,48L56,48C51.611,48 48,51.611 48,56L48,88C48,92.389 51.611,96 56,96L88,96C92.389,96 96,92.389 96,88L96,56C96,51.611 92.389,48 88,48ZM80,80L64,80L64,64L80,64L80,80Z" style="fill:white;fill-rule:nonzero;"/>
        <path d="M152,48L120,48C115.611,48 112,51.611 112,56L112,88C112,92.389 115.611,96 120,96L152,96C156.389,96 160,92.389 160,88L160,56C160,51.611 156.389,48 152,48ZM144,80L128,80L128,64L144,64L144,80Z" style="fill:white;fill-rule:nonzero;"/>
        <rect x="176" y="48" width="112" height="16" style="fill:white;fill-rule:nonzero;"/>
        <rect x="304" y="48" width="16" height="16" style="fill:white;fill-rule:nonzero;"/>
        <rect x="176" y="80" width="112" height="16" style="fill:white;fill-rule:nonzero;"/>
        <rect x="304" y="80" width="16" height="16" style="fill:white;fill-rule:nonzero;"/>
        <path d="M88,304L56,304C51.611,304 48,307.611 48,312L48,344C48,348.389 51.611,352 56,352L88,352C92.389,352 96,348.389 96,344L96,312C96,307.611 92.389,304 88,304ZM80,336L64,336L64,320L80,320L80,336Z" style="fill:white;fill-rule:nonzero;"/>
        <path d="M152,304L120,304C115.611,304 112,307.611 112,312L112,344C112,348.389 115.611,352 120,352L152,352C156.389,352 160,348.389 160,344L160,312C160,307.611 156.389,304 152,304ZM144,336L128,336L128,320L144,320L144,336Z" style="fill:white;fill-rule:nonzero;"/>
    </g>
</svg>
