<?xml version="1.0" encoding="UTF-8" standalone="no"?>
<!DOCTYPE svg PUBLIC "-//W3C//DTD SVG 1.1//EN" "http://www.w3.org/Graphics/SVG/1.1/DTD/svg11.dtd">
<svg width="100%" height="100%" viewBox="0 0 512 512" version="1.1" xmlns="http://www.w3.org/2000/svg" xmlns:xlink="http://www.w3.org/1999/xlink" xml:space="preserve" xmlns:serif="http://www.serif.com/" style="fill-rule:evenodd;clip-rule:evenodd;stroke-linejoin:round;stroke-miterlimit:2;">
    <path d="M340.437,175.563C335.699,174.273 330.816,174.242 326.184,175.426L310.621,148.227L297.586,155.684L313.148,182.887C309.781,186.277 307.328,190.504 306.039,195.242C304.074,202.465 305.039,210.02 308.758,216.516L316.566,230.168C320.281,236.664 326.309,241.324 333.531,243.293C335.977,243.957 338.465,244.289 340.934,244.289C343.246,244.289 345.543,243.996 347.785,243.426L350.848,248.773C342.223,257.5 340.066,271.242 346.449,282.398L354.258,296.051C357.977,302.547 364,307.207 371.223,309.172C373.668,309.84 376.156,310.168 378.625,310.168C380.937,310.168 383.238,309.879 385.477,309.305L401.152,336.707L414.191,329.25L398.508,301.84C407.133,293.117 409.289,279.371 402.906,268.219L395.098,254.566C388.715,243.41 375.773,238.305 363.883,241.316L360.82,235.969C364.191,232.574 366.641,228.352 367.93,223.613C369.895,216.391 368.93,208.832 365.211,202.336L357.402,188.688C353.687,182.188 347.66,177.527 340.437,175.563ZM382.059,262.023L389.871,275.676C392.043,279.473 392.082,283.918 390.371,287.613L386.004,279.984L372.969,287.441L377.34,295.078C376.613,295.008 375.887,294.875 375.168,294.68C371.816,293.77 369.02,291.605 367.293,288.59L359.484,274.941C357.312,271.141 357.27,266.695 358.984,263L363.461,270.824L376.5,263.367L372.02,255.539C376.074,255.938 379.887,258.227 382.059,262.023ZM348.312,214.105L335.277,221.563L339.645,229.199C338.918,229.129 338.191,228.996 337.473,228.801C334.121,227.887 331.324,225.727 329.602,222.711L321.793,209.059C320.066,206.043 319.617,202.535 320.531,199.184C320.727,198.465 320.98,197.773 321.285,197.109L325.77,204.945L338.805,197.484L334.328,189.66C338.383,190.055 342.195,192.344 344.367,196.141L352.176,209.793C353.902,212.809 354.352,216.313 353.437,219.668C353.242,220.387 352.988,221.078 352.684,221.742L348.312,214.105Z" style="fill:white;fill-rule:nonzero;"/>
    <path d="M111.246,336.707L126.93,309.297C129.187,309.867 131.488,310.148 133.773,310.148C143.504,310.148 152.973,305.082 158.141,296.047L165.953,282.398C169.668,275.902 170.633,268.344 168.668,261.121C167.379,256.383 164.926,252.16 161.559,248.766L164.621,243.418C166.883,243.988 169.18,244.27 171.465,244.27C181.195,244.27 190.664,239.203 195.836,230.168L203.645,216.516C210.027,205.363 207.871,191.621 199.246,182.895L214.816,155.684L201.781,148.227L186.211,175.438C174.32,172.422 161.379,177.531 154.996,188.684L147.187,202.336C140.805,213.492 142.961,227.234 151.586,235.957L148.523,241.309C143.891,240.125 139.008,240.152 134.27,241.441C127.047,243.406 121.023,248.066 117.305,254.563L109.496,268.215C103.113,279.371 105.27,293.113 113.891,301.84L98.211,329.246L111.246,336.707ZM158.961,219.668C158.051,216.313 158.496,212.809 160.223,209.793L168.031,196.141C170.203,192.344 174.016,190.059 178.074,189.66L173.598,197.488L186.633,204.945L191.109,197.117C192.824,200.816 192.785,205.262 190.609,209.059L182.801,222.711C180.625,226.508 176.816,228.797 172.758,229.191L177.121,221.566L164.086,214.105L159.719,221.742C159.41,221.078 159.156,220.387 158.961,219.668ZM122.531,275.676L130.34,262.023C132.066,259.008 134.859,256.844 138.211,255.934C138.93,255.738 139.656,255.605 140.383,255.535L135.902,263.367L148.937,270.824L153.414,263C155.129,266.695 155.09,271.141 152.918,274.941L145.105,288.59C142.934,292.391 139.121,294.676 135.066,295.074L139.43,287.445L126.395,279.988L122.031,287.617C120.316,283.918 120.355,279.473 122.531,275.676Z" style="fill:white;fill-rule:nonzero;"/>
    <path d="M331.586,415.727L362.926,415.637L362.883,400.617L331.531,400.707C328.215,388.926 317.371,380.27 304.555,380.27L304.473,380.27L288.746,380.316C275.895,380.352 265.059,389.082 261.805,400.906L255.641,400.926C254.355,396.32 251.895,392.102 248.41,388.641C243.121,383.383 236.109,380.488 228.652,380.488L228.57,380.488L212.844,380.531C205.359,380.555 198.332,383.488 193.055,388.797C189.59,392.281 187.152,396.512 185.895,401.125L154.324,401.215L154.367,416.23L185.945,416.141C189.262,427.926 200.109,436.578 212.926,436.578L213.004,436.578L228.73,436.531C236.215,436.512 243.246,433.574 248.523,428.27C251.984,424.785 254.422,420.555 255.684,415.941L261.836,415.922C263.121,420.527 265.586,424.746 269.066,428.211C274.355,433.469 281.367,436.359 288.824,436.359L288.906,436.359L304.633,436.316C312.117,436.293 319.148,433.359 324.426,428.051C327.887,424.57 330.324,420.34 331.586,415.727ZM237.875,417.68C235.426,420.145 232.164,421.504 228.691,421.516L212.965,421.559L212.926,421.559C208.566,421.559 204.695,419.402 202.336,416.094L211.125,416.07L211.082,401.051L202.281,401.078C202.703,400.48 203.176,399.914 203.703,399.387C206.152,396.922 209.414,395.562 212.887,395.551L228.613,395.504L228.652,395.504C232.113,395.504 235.367,396.848 237.82,399.289C238.352,399.812 238.828,400.375 239.254,400.973L230.227,400.996L230.27,416.016L239.297,415.988C238.875,416.586 238.398,417.152 237.875,417.68ZM304.59,421.297L288.863,421.344L288.824,421.344C285.363,421.344 282.109,420 279.656,417.562C279.129,417.035 278.648,416.473 278.227,415.879L287.023,415.852L286.98,400.836L278.191,400.859C280.539,397.531 284.414,395.348 288.789,395.332L304.516,395.289L304.555,395.289C308.914,395.289 312.781,397.445 315.145,400.754L306.129,400.781L306.172,415.797L315.195,415.773C314.773,416.371 314.301,416.934 313.773,417.465C311.324,419.926 308.062,421.289 304.59,421.297Z" style="fill:white;fill-rule:nonzero;"/>
    <path d="M263.707,211.805L263.707,128.637L335.734,87.051L328.223,74.047L256.199,115.629L184.176,74.047L176.664,87.051L248.691,128.637L248.691,211.805L263.707,211.805Z" style="fill:white;fill-rule:nonzero;"/>
    <path d="M480.66,337.359L408.656,378.98L336.602,337.426L329.098,350.434L401.152,391.988L401.191,475.156L416.207,475.152L416.172,391.984L488.176,350.359L480.66,337.359Z" style="fill:white;fill-rule:nonzero;"/>
    <path d="M110.828,474.621L110.828,391.453L182.852,349.871L175.344,336.867L103.32,378.449L31.285,336.863L23.777,349.871L95.809,391.453L95.809,474.621L110.828,474.621Z" style="fill:white;fill-rule:nonzero;"/>
    <path d="M167.902,73.32L256.199,22.34L344.496,73.32L344.496,166.77L359.516,166.77L359.516,64.648L256.199,5L152.887,64.648L152.887,166.77L167.902,166.77L167.902,73.32Z" style="fill:white;fill-rule:nonzero;"/>
    <path d="M256.199,243.594L297.676,219.648L290.168,206.645L256.199,226.254L222.223,206.637L214.715,219.641L256.199,243.594Z" style="fill:white;fill-rule:nonzero;"/>
    <path d="M103.316,489.074L15.02,438.094L15.02,336.137L97.043,288.781L89.535,275.773L0,327.469L0,446.766L103.316,506.414L198.668,451.363L191.16,438.355L103.316,489.074Z" style="fill:white;fill-rule:nonzero;"/>
    <path d="M206.629,370.418L206.629,327.469L166.32,304.195L158.812,317.203L191.613,336.137L191.613,370.418L206.629,370.418Z" style="fill:white;fill-rule:nonzero;"/>
    <path d="M511.941,327.949L422.852,276.57L415.348,289.578L496.93,336.625L496.98,438.582L408.707,489.605L322.387,439.824L314.883,452.832L408.715,506.945L512,447.246L511.941,327.949Z" style="fill:white;fill-rule:nonzero;"/>
    <path d="M346.258,304.383L305.312,328.051L305.332,368.613L320.352,368.605L320.332,336.715L353.773,317.383L346.258,304.383Z" style="fill:white;fill-rule:nonzero;"/>
    <path d="M209.07,78.566L201.543,65.57L214.535,58.043L222.066,71.035L209.07,78.566ZM298.191,75.484L256.207,51.246L252.383,53.465L244.852,40.469L256.191,33.898L305.703,62.48L298.191,75.484ZM230.727,66.016L223.199,53.02L236.191,45.492L243.719,58.484L230.727,66.016Z" style="fill:white;fill-rule:nonzero;"/>
    <path d="M437.477,461.41L429.961,448.41L471.934,424.148L471.926,419.727L486.941,419.695L486.969,432.801L437.477,461.41ZM471.902,409.715L471.871,394.699L486.887,394.664L486.922,409.684L471.902,409.715ZM471.848,384.687L471.816,369.668L486.836,369.637L486.867,384.652L471.848,384.687Z" style="fill:white;fill-rule:nonzero;"/>
    <path d="M79.789,463.812L25.031,432.32L25.031,416.613L40.047,416.613L40.047,423.637L87.273,450.797L79.789,463.812ZM25.031,406.602L25.031,391.582L40.047,391.582L40.047,406.598L25.031,406.602ZM40.047,381.57L25.031,381.57L25.031,366.551L40.047,366.551L40.047,381.57Z" style="fill:white;fill-rule:nonzero;"/>
</svg>
