<?xml version="1.0" encoding="UTF-8" standalone="no"?><!DOCTYPE svg PUBLIC "-//W3C//DTD SVG 1.1//EN" "http://www.w3.org/Graphics/SVG/1.1/DTD/svg11.dtd"><svg width="100%" height="100%" viewBox="0 0 32 32" version="1.1" xmlns="http://www.w3.org/2000/svg" xmlns:xlink="http://www.w3.org/1999/xlink" xml:space="preserve" xmlns:serif="http://www.serif.com/" style="fill-rule:evenodd;clip-rule:evenodd;stroke-linejoin:round;stroke-miterlimit:1.41421;"><path d="M4,10l24,0c1.104,0 2,-0.896 2,-2c0,-1.104 -0.896,-2 -2,-2l-24,0c-1.104,0 -2,0.896 -2,2c0,1.104 0.896,2 2,2Zm24,4l-11,0c-1.104,0 -2,0.896 -2,2c0,1.104 0.896,2 2,2l11,0c1.104,0 2,-0.896 2,-2c0,-1.104 -0.896,-2 -2,-2Zm0,8l-17,0c-1.104,0 -2,0.896 -2,2c0,1.104 0.896,2 2,2l17,0c1.104,0 2,-0.896 2,-2c0,-1.104 -0.896,-2 -2,-2Z" style="fill:url(#_Linear1);fill-rule:nonzero;"/><defs><linearGradient id="_Linear1" x1="0" y1="0" x2="1" y2="0" gradientUnits="userSpaceOnUse" gradientTransform="matrix(26,-12,12,26,4,25)"><stop offset="0" style="stop-color:#7830fc;stop-opacity:1"/><stop offset="1" style="stop-color:#9470d8;stop-opacity:1"/></linearGradient></defs></svg>