<?xml version="1.0" encoding="UTF-8" standalone="no"?>
<!DOCTYPE svg PUBLIC "-//W3C//DTD SVG 1.1//EN" "http://www.w3.org/Graphics/SVG/1.1/DTD/svg11.dtd">
<svg width="100%" height="100%" viewBox="0 0 256 256" version="1.1" xmlns="http://www.w3.org/2000/svg" xmlns:xlink="http://www.w3.org/1999/xlink" xml:space="preserve" xmlns:serif="http://www.serif.com/" style="fill-rule:evenodd;clip-rule:evenodd;stroke-linejoin:round;stroke-miterlimit:1.41421;">
    <path d="M255.807,87.087C255.748,86.776 255.697,86.466 255.614,86.163C255.562,85.98 255.5,85.808 255.442,85.628C255.355,85.359 255.266,85.091 255.159,84.829C255.083,84.646 254.997,84.47 254.914,84.294C254.797,84.046 254.676,83.801 254.538,83.563C254.442,83.388 254.331,83.222 254.225,83.053C254.076,82.826 253.925,82.602 253.759,82.384C253.639,82.222 253.514,82.067 253.383,81.912C253.211,81.705 253.025,81.509 252.839,81.316C252.694,81.171 252.549,81.026 252.397,80.885C252.197,80.702 251.991,80.53 251.773,80.364C251.608,80.237 251.446,80.106 251.274,79.988C251.212,79.944 251.156,79.892 251.091,79.85L134.099,1.849C130.406,-0.616 125.59,-0.616 121.898,1.849L4.899,79.847C4.833,79.888 4.782,79.94 4.716,79.985C4.544,80.106 4.382,80.233 4.216,80.361C4.002,80.53 3.792,80.702 3.592,80.878C3.441,81.016 3.296,81.16 3.154,81.309C2.961,81.502 2.782,81.698 2.606,81.905C2.475,82.06 2.351,82.215 2.23,82.388C2.065,82.605 1.913,82.826 1.765,83.057C1.658,83.226 1.551,83.391 1.451,83.567C1.313,83.805 1.193,84.049 1.079,84.291C0.996,84.467 0.907,84.646 0.834,84.825C0.727,85.087 0.634,85.356 0.548,85.625C0.49,85.804 0.427,85.98 0.379,86.142C0.3,86.445 0.241,86.752 0.186,87.066C0.155,87.225 0.117,87.38 0.097,87.542C0.034,88.017 0,88.493 0,88.979L0,166.995C0,167.477 0.034,167.96 0.103,168.432C0.128,168.605 0.172,168.743 0.207,168.908C0.262,169.218 0.31,169.529 0.414,169.839C0.462,170.011 0.517,170.184 0.586,170.373C0.672,170.649 0.758,170.925 0.862,171.177C0.934,171.349 1.034,171.521 1.103,171.694C1.217,171.935 1.345,172.176 1.482,172.428C1.579,172.6 1.689,172.773 1.793,172.931C1.941,173.173 2.103,173.38 2.275,173.586C2.396,173.759 2.517,173.897 2.655,174.062C2.83,174.269 2.999,174.476 3.206,174.659C3.347,174.796 3.482,174.969 3.654,175.072C3.854,175.245 4.068,175.417 4.275,175.596C4.44,175.734 4.62,175.838 4.757,175.972C4.823,176.006 4.861,176.075 4.93,176.106L121.898,254.146C123.746,255.387 125.863,256.008 128,255.997C130.137,255.987 132.254,255.377 134.102,254.146L251.101,176.148C251.167,176.106 251.222,176.058 251.284,176.013C251.456,175.893 251.618,175.765 251.784,175.638C251.998,175.469 252.208,175.293 252.408,175.114C252.559,174.979 252.704,174.831 252.849,174.686C253.039,174.493 253.221,174.297 253.394,174.09C253.525,173.935 253.649,173.779 253.77,173.614C253.935,173.397 254.087,173.173 254.235,172.945C254.342,172.78 254.449,172.611 254.549,172.442C254.687,172.2 254.807,171.956 254.924,171.708C255.007,171.532 255.093,171.356 255.169,171.177C255.276,170.911 255.366,170.642 255.452,170.373C255.51,170.194 255.573,170.018 255.624,169.839C255.704,169.536 255.759,169.225 255.817,168.915C255.845,168.756 255.886,168.601 255.903,168.439C255.966,167.964 256,167.488 256,167.002L256,89C256,88.514 255.962,88.038 255.903,87.562C255.876,87.393 255.824,87.256 255.79,87.087L255.807,87.087ZM127.997,154.022L89.092,128.001L127.997,101.976L166.904,128.001L127.997,154.022ZM116.999,82.867L69.307,114.766L30.81,89.014L116.999,31.555L116.999,82.867ZM49.522,127.997L22.005,146.403L22.005,109.592L49.522,127.997ZM69.307,141.242L116.999,173.138L116.999,224.45L30.81,166.985L69.307,141.236L69.307,141.242ZM138.997,173.131L186.689,141.236L225.19,166.985L138.997,224.443L138.997,173.131ZM206.474,128.004L233.995,109.595L233.995,146.41L206.474,127.997L206.474,128.004ZM186.689,114.766L138.997,82.87L138.997,31.555L225.19,89.014L186.689,114.766Z" style="fill:white;fill-rule:nonzero;"/>
</svg>
