<?xml version="1.0" encoding="UTF-8" standalone="no"?><!DOCTYPE svg PUBLIC "-//W3C//DTD SVG 1.1//EN" "http://www.w3.org/Graphics/SVG/1.1/DTD/svg11.dtd"><svg width="100%" height="100%" viewBox="0 0 202 232" version="1.1" xmlns="http://www.w3.org/2000/svg" xmlns:xlink="http://www.w3.org/1999/xlink" xml:space="preserve" xmlns:serif="http://www.serif.com/" style="fill-rule:evenodd;clip-rule:evenodd;stroke-linecap:round;stroke-miterlimit:1.5;"><path d="M61,30c139.14,85.561 138.57,86 138.57,86l0,-54l-97.57,-56l-41,24" style="fill:url(#_Linear1);stroke:#fff;stroke-width:3px;"/><path d="M139,210c-127.45,-81.163 -135,-86 -135,-86l0,51l98,56l37,-21" style="fill:url(#_Linear2);stroke:#fff;stroke-width:3px;"/><g><path d="M39,79l-3,65l-31,-20l-1,-62l35,17Z" style="fill:url(#_Linear3);stroke:#fff;stroke-width:3px;"/><path d="M39,79l65,-21l-44,-28l-56,32l35,17Z" style="fill:url(#_Linear4);stroke:#fff;stroke-width:3px;"/></g><g><path d="M164,157l-6,-66l41.57,26l0.43,58l-36,-18Z" style="fill:url(#_Linear5);stroke:#fff;stroke-width:3px;"/><path d="M164,157l-66,26l41,26l61,-34l-36,-18Z" style="fill:url(#_Linear6);stroke:#fff;stroke-width:3px;"/></g><defs><linearGradient id="_Linear1" x1="0" y1="0" x2="1" y2="0" gradientUnits="userSpaceOnUse" gradientTransform="matrix(138.57,0,0,138.57,61,61)"><stop offset="0" style="stop-color:#ff0002;stop-opacity:1"/><stop offset="1" style="stop-color:#ff5a00;stop-opacity:1"/></linearGradient><linearGradient id="_Linear2" x1="0" y1="0" x2="1" y2="0" gradientUnits="userSpaceOnUse" gradientTransform="matrix(-132.933,2.63964,-2.63964,-132.933,137.911,173.861)"><stop offset="0" style="stop-color:#ff0002;stop-opacity:1"/><stop offset="1" style="stop-color:#ff5a00;stop-opacity:1"/></linearGradient><linearGradient id="_Linear3" x1="0" y1="0" x2="1" y2="0" gradientUnits="userSpaceOnUse" gradientTransform="matrix(-18.9704,-63.5048,63.5048,-18.9704,16.818,125.892)"><stop offset="0" style="stop-color:#fff100;stop-opacity:1"/><stop offset="0.45" style="stop-color:#ff5700;stop-opacity:1"/><stop offset="1" style="stop-color:#ff2d00;stop-opacity:1"/></linearGradient><linearGradient id="_Linear4" x1="0" y1="0" x2="1" y2="0" gradientUnits="userSpaceOnUse" gradientTransform="matrix(-97.4815,-9.93782,9.93782,-97.4815,106.379,60.554)"><stop offset="0" style="stop-color:#ff2d00;stop-opacity:1"/><stop offset="0.55" style="stop-color:#ffb700;stop-opacity:1"/><stop offset="1" style="stop-color:#fff100;stop-opacity:1"/></linearGradient><linearGradient id="_Linear5" x1="0" y1="0" x2="1" y2="0" gradientUnits="userSpaceOnUse" gradientTransform="matrix(25.4638,61.6177,-61.6177,25.4638,183.963,108.475)"><stop offset="0" style="stop-color:#fff100;stop-opacity:1"/><stop offset="0.45" style="stop-color:#ff5700;stop-opacity:1"/><stop offset="1" style="stop-color:#ff2d00;stop-opacity:1"/></linearGradient><linearGradient id="_Linear6" x1="0" y1="0" x2="1" y2="0" gradientUnits="userSpaceOnUse" gradientTransform="matrix(98.5696,0,0,98.5696,101,183)"><stop offset="0" style="stop-color:#ff2d00;stop-opacity:1"/><stop offset="0.55" style="stop-color:#ffb700;stop-opacity:1"/><stop offset="1" style="stop-color:#fff100;stop-opacity:1"/></linearGradient></defs></svg>