<?xml version="1.0" encoding="UTF-8" standalone="no"?>
<!DOCTYPE svg PUBLIC "-//W3C//DTD SVG 1.1//EN" "http://www.w3.org/Graphics/SVG/1.1/DTD/svg11.dtd">
<svg width="100%" height="100%" viewBox="0 0 513 513" version="1.1" xmlns="http://www.w3.org/2000/svg" xmlns:xlink="http://www.w3.org/1999/xlink" xml:space="preserve" xmlns:serif="http://www.serif.com/" style="fill-rule:evenodd;clip-rule:evenodd;stroke-linejoin:round;stroke-miterlimit:2;">
    <g>
        <g>
            <g>
                <path d="M204.254,128.271L18.428,128.271C8.267,128.271 0,136.538 0,146.698L0,416.268C0,426.428 8.267,434.695 18.428,434.695L204.254,434.695C214.415,434.695 222.682,426.428 222.682,416.268L222.682,146.698C222.681,136.538 214.414,128.271 204.254,128.271ZM207.683,416.268C207.683,418.159 206.144,419.697 204.253,419.697L18.428,419.697C16.537,419.697 14.998,418.159 14.998,416.268L14.998,146.698C14.998,144.807 16.537,143.269 18.428,143.269L204.254,143.269C206.145,143.269 207.684,144.807 207.684,146.698L207.684,416.268L207.683,416.268Z" style="fill:white;fill-rule:nonzero;"/>
                <path d="M367.312,181.996L259.186,181.996C249.025,181.996 240.758,190.263 240.758,200.424L240.758,414.375C240.758,424.536 249.025,432.803 259.186,432.803L367.313,432.803C377.474,432.803 385.741,424.536 385.741,414.375L385.741,200.423C385.739,190.262 377.472,181.996 367.312,181.996ZM370.742,414.375C370.741,416.267 369.202,417.805 367.311,417.805L259.186,417.805C257.295,417.805 255.756,416.267 255.756,414.375L255.756,200.423C255.756,198.531 257.295,196.993 259.186,196.993L367.313,196.993C369.204,196.993 370.743,198.531 370.743,200.423L370.743,414.375L370.742,414.375Z" style="fill:white;fill-rule:nonzero;"/>
                <path d="M493.573,253.987L418.165,253.987C408.004,253.987 399.737,262.254 399.737,272.415L399.737,416.564C399.737,426.725 408.004,434.992 418.165,434.992L493.573,434.992C503.734,434.992 512.001,426.725 512.001,416.564L512.001,272.414C512,262.253 503.734,253.987 493.573,253.987ZM497.002,416.563C497.002,418.455 495.463,419.993 493.572,419.993L418.164,419.993C416.273,419.993 414.734,418.455 414.734,416.563L414.734,272.413C414.734,270.521 416.273,268.983 418.164,268.983L493.572,268.983C495.463,268.983 497.002,270.521 497.002,272.413L497.002,416.563Z" style="fill:white;fill-rule:nonzero;"/>
                <path d="M154.269,123.004C158.41,123.004 161.768,119.647 161.768,115.505L161.768,95.006C161.768,93.353 163.113,92.007 164.767,92.007L270.755,92.007C272.409,92.007 273.754,93.353 273.754,95.006L273.754,139.395L265.558,131.199C262.629,128.271 257.881,128.271 254.953,131.199C252.024,134.129 252.024,138.876 254.953,141.805L275.95,162.802C275.995,162.847 276.041,162.892 276.087,162.936C277.533,164.311 279.393,164.999 281.252,164.999L281.253,164.999C281.276,164.999 281.3,164.999 281.323,164.998C281.36,164.998 281.396,164.998 281.433,164.997C281.469,164.996 281.506,164.995 281.542,164.993C281.565,164.992 281.589,164.992 281.612,164.99C281.635,164.989 281.658,164.987 281.682,164.986C281.72,164.984 281.758,164.982 281.796,164.979C281.801,164.979 281.807,164.978 281.812,164.978C281.867,164.974 281.922,164.969 281.977,164.964C281.979,164.964 281.982,164.964 281.984,164.963C283.384,164.826 284.752,164.297 285.911,163.376C285.917,163.371 285.922,163.367 285.928,163.363C285.958,163.339 285.988,163.314 286.018,163.29C286.034,163.276 286.051,163.263 286.067,163.249C286.101,163.22 286.135,163.191 286.169,163.162C286.198,163.137 286.226,163.112 286.254,163.087C286.269,163.074 286.283,163.061 286.298,163.047C286.331,163.017 286.364,162.986 286.397,162.955C286.405,162.947 286.414,162.94 286.422,162.932C286.464,162.892 286.505,162.852 286.546,162.811C286.549,162.809 286.551,162.806 286.554,162.804L306.551,142.807C309.48,139.877 309.48,135.13 306.551,132.201C303.622,129.273 298.874,129.273 295.946,132.201L288.75,139.397L288.75,95.006C288.75,85.082 280.677,77.009 270.753,77.009L164.767,77.009C154.843,77.009 146.77,85.082 146.77,95.006L146.77,115.504C146.77,119.646 150.128,123.004 154.269,123.004Z" style="fill:white;fill-rule:nonzero;"/>
                <path d="M336.246,173.997C340.387,173.997 343.745,170.64 343.745,166.498L343.745,146C343.745,144.347 345.09,143.001 346.744,143.001L435.735,143.001C437.389,143.001 438.734,144.347 438.734,146L438.734,216.386L430.538,208.19C427.609,205.262 422.861,205.262 419.933,208.19C417.004,211.12 417.004,215.867 419.933,218.796L440.93,239.793C440.975,239.838 441.021,239.883 441.067,239.927C442.513,241.302 444.373,241.99 446.232,241.99L446.233,241.99C446.256,241.99 446.28,241.99 446.303,241.989C446.34,241.989 446.376,241.989 446.413,241.988C446.449,241.987 446.486,241.986 446.522,241.984C446.545,241.983 446.569,241.983 446.592,241.981C446.615,241.98 446.638,241.978 446.662,241.977C446.7,241.975 446.738,241.973 446.776,241.97C446.781,241.97 446.787,241.969 446.792,241.969C446.847,241.965 446.902,241.96 446.957,241.955C446.959,241.955 446.962,241.955 446.964,241.954C448.364,241.817 449.732,241.288 450.891,240.367C450.897,240.362 450.902,240.358 450.908,240.354C450.938,240.33 450.968,240.305 450.998,240.281C451.014,240.267 451.031,240.254 451.047,240.24C451.081,240.211 451.115,240.182 451.149,240.153C451.178,240.128 451.206,240.103 451.234,240.078C451.249,240.065 451.263,240.052 451.278,240.038C451.311,240.008 451.344,239.977 451.377,239.946C451.385,239.938 451.394,239.931 451.402,239.923C451.444,239.883 451.485,239.843 451.526,239.802C451.529,239.8 451.531,239.797 451.534,239.795L471.531,219.798C474.46,216.868 474.46,212.121 471.531,209.192C468.602,206.264 463.854,206.264 460.926,209.192L453.73,216.388L453.73,146.003C453.73,136.079 445.657,128.006 435.733,128.006L346.742,128.006C336.818,128.006 328.745,136.079 328.745,146.003L328.745,166.501C328.747,170.64 332.104,173.997 336.246,173.997Z" style="fill:white;fill-rule:nonzero;"/>
                <path d="M189.265,152L33.285,152C29.144,152 25.786,155.357 25.786,159.499L25.786,237.489C25.786,241.632 29.144,244.988 33.285,244.988L124.023,244.988C128.164,244.988 131.522,241.631 131.522,237.489C131.522,233.347 128.164,229.99 124.023,229.99L40.784,229.99L40.784,166.998L181.766,166.998L181.766,229.99L154.02,229.99C149.879,229.99 146.521,233.347 146.521,237.489C146.521,241.632 149.879,244.988 154.02,244.988L189.265,244.988C193.406,244.988 196.764,241.631 196.764,237.489L196.764,159.499C196.764,155.357 193.406,152 189.265,152Z" style="fill:white;fill-rule:nonzero;"/>
                <path d="M189.265,356.974L33.285,356.974C29.144,356.974 25.786,360.331 25.786,364.473L25.786,402.468C25.786,406.61 29.144,409.967 33.285,409.967L189.265,409.967C193.406,409.967 196.764,406.61 196.764,402.468L196.764,364.473C196.764,360.33 193.406,356.974 189.265,356.974ZM181.766,394.969L40.784,394.969L40.784,371.972L181.766,371.972L181.766,394.969Z" style="fill:white;fill-rule:nonzero;"/>
                <path d="M33.285,346.975L120.274,346.975C124.415,346.975 127.773,343.618 127.773,339.476L127.773,261.486C127.773,257.344 124.415,253.987 120.274,253.987L33.285,253.987C29.144,253.987 25.786,257.344 25.786,261.486L25.786,339.476C25.786,343.617 29.143,346.975 33.285,346.975ZM40.784,268.985L112.775,268.985L112.775,331.977L40.784,331.977L40.784,268.985Z" style="fill:white;fill-rule:nonzero;"/>
                <path d="M189.265,253.987L143.271,253.987C139.13,253.987 135.772,257.344 135.772,261.486L135.772,339.476C135.772,343.618 139.13,346.975 143.271,346.975L189.265,346.975C193.406,346.975 196.764,343.618 196.764,339.476L196.764,261.486C196.764,257.343 193.406,253.987 189.265,253.987ZM181.766,331.977L150.77,331.977L150.77,268.985L181.766,268.985L181.766,331.977Z" style="fill:white;fill-rule:nonzero;"/>
                <path d="M349.679,206.993L276.819,206.993C270.167,206.993 264.756,212.404 264.756,219.056L264.756,241.922C264.756,248.574 270.168,253.985 276.819,253.985L349.679,253.985C356.331,253.985 361.742,248.574 361.742,241.922L361.742,219.056C361.742,212.404 356.33,206.993 349.679,206.993ZM346.744,238.989L279.753,238.989L279.753,221.991L346.744,221.991L346.744,238.989Z" style="fill:white;fill-rule:nonzero;"/>
                <path d="M348.752,262.986L277.744,262.986C270.581,262.986 264.754,268.813 264.754,275.975L264.754,296.481C264.754,300.624 268.112,303.98 272.253,303.98C276.394,303.98 279.752,300.623 279.752,296.481L279.752,277.983L346.743,277.983L346.743,394.968L279.752,394.968L279.752,326.477C279.752,322.335 276.394,318.978 272.253,318.978C268.112,318.978 264.754,322.335 264.754,326.477L264.754,396.977C264.754,404.139 270.581,409.966 277.744,409.966L348.752,409.966C355.915,409.966 361.742,404.139 361.742,396.977L361.742,275.975C361.742,268.813 355.915,262.986 348.752,262.986Z" style="fill:white;fill-rule:nonzero;"/>
                <path d="M472.796,278.984L439.663,278.984C431.431,278.984 424.733,285.681 424.733,293.914L424.733,324.047C424.733,332.279 431.43,338.977 439.663,338.977L472.796,338.977C481.028,338.977 487.726,332.28 487.726,324.047L487.726,293.914C487.726,285.681 481.029,278.984 472.796,278.984ZM472.728,323.978L439.732,323.978L439.732,293.982L472.728,293.982L472.728,323.978Z" style="fill:white;fill-rule:nonzero;"/>
                <path d="M472.796,350.974L439.663,350.974C431.431,350.974 424.733,357.671 424.733,365.904L424.733,395.037C424.733,403.269 431.43,409.967 439.663,409.967L472.796,409.967C481.028,409.967 487.726,403.27 487.726,395.037L487.726,365.904C487.726,357.671 481.029,350.974 472.796,350.974ZM472.728,394.969L439.732,394.969L439.732,365.973L472.728,365.973L472.728,394.969Z" style="fill:white;fill-rule:nonzero;"/>
            </g>
        </g>
    </g>
</svg>
