<?xml version="1.0" encoding="UTF-8" standalone="no"?><!DOCTYPE svg PUBLIC "-//W3C//DTD SVG 1.1//EN" "http://www.w3.org/Graphics/SVG/1.1/DTD/svg11.dtd"><svg width="100%" height="100%" viewBox="0 0 256 256" version="1.1" xmlns="http://www.w3.org/2000/svg" xmlns:xlink="http://www.w3.org/1999/xlink" xml:space="preserve" xmlns:serif="http://www.serif.com/" style="fill-rule:evenodd;clip-rule:evenodd;stroke-linejoin:round;stroke-miterlimit:1.41421;"><path d="M128,0c-70.692,0 -128,57.307 -128,128c0,70.693 57.308,128 128,128c70.693,0 128,-57.307 128,-128c0,-70.693 -57.307,-128 -128,-128Zm-100.496,129.334l99.161,99.162c-54.451,-0.71 -98.452,-44.711 -99.161,-99.162Zm122.992,96.649l-120.479,-120.479c10.216,-44.681 50.205,-78.017 97.983,-78.017c33.397,0 62.985,16.293 81.263,41.359l-13.917,12.28c-14.826,-21.262 -39.459,-35.177 -67.346,-35.177c-35.505,0 -65.74,22.552 -77.169,54.113l105.108,105.107c25.525,-9.243 45.156,-30.79 51.731,-57.477l-43.567,0l0,-19.692l45.948,0l0,0l18.462,0l0,0c0,47.778 -33.336,87.767 -78.017,97.983Z" style="fill:#744c9e;fill-rule:nonzero;"/></svg>