<?xml version="1.0" encoding="UTF-8" standalone="no"?>
<!DOCTYPE svg PUBLIC "-//W3C//DTD SVG 1.1//EN" "http://www.w3.org/Graphics/SVG/1.1/DTD/svg11.dtd">
<svg width="100%" height="100%" viewBox="0 0 512 512" version="1.1" xmlns="http://www.w3.org/2000/svg" xmlns:xlink="http://www.w3.org/1999/xlink" xml:space="preserve" xmlns:serif="http://www.serif.com/" style="fill-rule:evenodd;clip-rule:evenodd;stroke-linejoin:round;stroke-miterlimit:1.41421;">
    <path d="M504,264C504,210.488 466.256,165.68 416,154.656L416,48C416,25.944 398.056,8 376,8L168,8C145.944,8 128,25.944 128,48L128,136L81.752,136L76.928,155.328L59.856,145.08L17.072,187.84L27.32,204.928L8,209.752L8,270.248L27.328,275.072L17.072,292.16L59.848,334.928L76.92,324.68L81.752,344L128,344L128,464C128,486.056 145.944,504 168,504L376,504C398.056,504 416,486.056 416,464L416,373.344C466.256,362.32 504,317.512 504,264ZM488,264C488,279.592 484.184,294.28 477.56,307.312C473.12,295.096 462.904,285.488 449.704,282.184L416,273.752L416,271.84C425.968,264.328 432,252.512 432,240.008L432,224.008C432,212.832 427.272,202.08 419.024,194.512C410.784,186.968 399.616,183.176 388.448,184.16C368.008,185.928 352,204.168 352,225.656L352,240C352,252.504 358.032,264.32 368,271.832L368,273.744L334.296,282.176C321.096,285.48 310.88,295.088 306.44,307.304C299.816,294.28 296,279.592 296,264C296,211.064 339.064,168 392,168C444.936,168 488,211.064 488,264ZM368,154.656C362.496,155.864 357.168,157.528 352,159.512L352,136L192,136L192,248L281.28,248C280.52,253.24 280,258.552 280,264C280,317.512 317.744,362.32 368,373.344L368,392L176,392L176,120L368,120L368,154.656ZM284.72,232L208,232L208,152L336,152L336,167.152C311.568,181.336 292.96,204.424 284.72,232ZM168,24L376,24C389.232,24 400,34.768 400,48L400,72L144,72L144,48C144,34.768 154.768,24 168,24ZM128,276.576C122.952,278.8 117.504,280 112,280C89.944,280 72,262.056 72,240C72,217.944 89.944,200 112,200C117.504,200 122.952,201.2 128,203.424L128,276.576ZM94.248,328L90.352,312.408L88.728,308.128L79.592,304.416L62.328,314.784L37.224,289.672L47.592,272.4L43.592,262.64L24,257.752L24,222.248L43.568,217.36L47.592,207.6L37.224,190.328L62.328,165.216L79.592,175.584L89.352,171.616L94.248,152L128,152L128,186.44C122.808,184.88 117.432,184 112,184C81.12,184 56,209.128 56,240C56,270.872 81.12,296 112,296C117.432,296 122.808,295.12 128,293.56L128,328L94.248,328ZM376,488L168,488C154.768,488 144,477.232 144,464L144,440L400,440L400,464C400,477.232 389.232,488 376,488ZM400,424L144,424L144,88L400,88L400,152.408C397.344,152.216 394.704,152 392,152C389.296,152 386.656,152.216 384,152.408L384,104L160,104L160,408L384,408L384,375.592C386.656,375.784 389.296,376 392,376C394.704,376 397.344,375.784 400,375.592L400,424ZM392,360C363.32,360 337.608,347.288 320,327.288L320,320.984C320,309.952 327.48,300.376 338.176,297.696L384,286.248L384,262.96L380.024,260.648C372.496,256.264 368,248.544 368,240L368,225.656C368,212.384 377.592,201.16 389.832,200.096C396.696,199.544 403.2,201.704 408.216,206.304C413.16,210.84 416,217.288 416,224L416,240C416,248.544 411.504,256.264 403.976,260.648L400,262.96L400,286.248L445.824,297.696C456.52,300.376 464,309.952 464,320.984L464,327.288C446.392,347.288 420.68,360 392,360Z" style="fill:white;fill-rule:nonzero;"/>
    <rect x="304" y="40" width="16" height="16" style="fill:white;fill-rule:nonzero;"/>
    <rect x="224" y="40" width="64" height="16" style="fill:white;fill-rule:nonzero;"/>
    <rect x="240" y="456" width="64" height="16" style="fill:white;fill-rule:nonzero;"/>
    <rect x="352" y="456" width="16" height="16" style="fill:white;fill-rule:nonzero;"/>
    <rect x="176" y="456" width="16" height="16" style="fill:white;fill-rule:nonzero;"/>
    <rect x="192" y="264" width="72" height="16" style="fill:white;fill-rule:nonzero;"/>
    <rect x="192" y="296" width="72" height="16" style="fill:white;fill-rule:nonzero;"/>
    <rect x="192" y="328" width="72" height="16" style="fill:white;fill-rule:nonzero;"/>
    <rect x="192" y="360" width="72" height="16" style="fill:white;fill-rule:nonzero;"/>
    <path d="M456,152C469.232,152 480,141.232 480,128C480,117.584 473.288,108.784 464,105.472L464,40L448,40L448,105.472C438.712,108.784 432,117.584 432,128C432,141.232 442.768,152 456,152ZM456,120C460.408,120 464,123.584 464,128C464,132.416 460.408,136 456,136C451.592,136 448,132.416 448,128C448,123.584 451.592,120 456,120Z" style="fill:white;fill-rule:nonzero;"/>
    <rect x="448" y="8" width="16" height="16" style="fill:white;fill-rule:nonzero;"/>
    <path d="M88,360C74.768,360 64,370.768 64,384C64,394.416 70.712,403.216 80,406.528L80,472L96,472L96,406.528C105.288,403.216 112,394.416 112,384C112,370.768 101.232,360 88,360ZM88,392C83.592,392 80,388.416 80,384C80,379.584 83.592,376 88,376C92.408,376 96,379.584 96,384C96,388.416 92.408,392 88,392Z" style="fill:white;fill-rule:nonzero;"/>
    <rect x="80" y="488" width="16" height="16" style="fill:white;fill-rule:nonzero;"/>
</svg>
