<?xml version="1.0" encoding="UTF-8" standalone="no"?>
<!DOCTYPE svg PUBLIC "-//W3C//DTD SVG 1.1//EN" "http://www.w3.org/Graphics/SVG/1.1/DTD/svg11.dtd">
<svg width="100%" height="100%" viewBox="0 0 241 241" version="1.1" xmlns="http://www.w3.org/2000/svg" xmlns:xlink="http://www.w3.org/1999/xlink" xml:space="preserve" xmlns:serif="http://www.serif.com/" style="fill-rule:evenodd;clip-rule:evenodd;">
    <g transform="matrix(1,0,0,1,-316,-189)">
        <path d="M437.9,426.998C502.7,426.998 555.2,374.498 555.2,309.798C555.2,244.998 502.7,192.598 437.9,192.598C373.1,192.598 320.6,245.098 320.6,309.798C320.6,374.498 373.1,426.998 437.9,426.998Z" style="fill:rgb(82,204,143);fill-rule:nonzero;"/>
        <g opacity="0.85">
            <path d="M437.9,426.998C502.7,426.998 555.2,374.498 555.2,309.798C555.2,244.998 502.7,192.598 437.9,192.598C373.1,192.598 320.6,245.098 320.6,309.798C320.6,374.498 373.1,426.998 437.9,426.998Z" style="fill:url(#_Radial1);fill-rule:nonzero;"/>
            <path d="M437.9,426.998C502.7,426.998 555.2,374.498 555.2,309.798C555.2,244.998 502.7,192.598 437.9,192.598C373.1,192.598 320.6,245.098 320.6,309.798C320.6,374.498 373.1,426.998 437.9,426.998Z" style="fill:none;fill-rule:nonzero;stroke:url(#_Linear2);stroke-width:1px;"/>
        </g>
        <path d="M347.8,384.8C330.7,364.5 320.6,338.3 320.6,309.7C320.6,244.9 373.1,192.5 437.9,192.5C466.5,192.5 492.7,202.8 513.1,219.7" style="fill:url(#_Radial3);fill-rule:nonzero;"/>
        <path d="M515.499,297.7C514.899,272.7 493.999,252.5 468.499,252.5C455.999,252.5 444.499,257.4 435.999,265.3C427.599,257.4 416.199,252.5 403.799,252.5C378.099,252.5 357.399,272.9 356.799,298.3L356.799,298.5C356.799,317.8 363.999,335 370.399,346.8C373.699,352.8 377.099,357.7 379.599,361.1C380.799,362.8 381.999,364.2 382.699,365.2C383.099,365.7 383.399,366 383.699,366.4C383.799,366.5 383.899,366.6 383.899,366.8L383.999,366.9C389.499,373.1 398.899,373.8 405.199,368.3C411.399,362.8 412.099,353.4 406.599,347.2C406.599,347.2 406.599,347.1 406.499,347.1C406.399,347 406.299,346.7 405.899,346.4C405.399,345.8 404.599,344.8 403.599,343.4C401.699,340.8 399.099,337 396.599,332.3C391.299,322.8 386.699,310.8 386.699,298.7C387.099,289.6 394.499,282.4 403.599,282.4C412.699,282.4 420.299,289.7 420.499,298.9C420.599,301.3 421.199,303.4 422.199,305.3C424.299,310.9 429.799,315 436.299,315C444.699,315 451.299,308.3 451.299,300.2L451.299,298.2C451.699,289.3 459.099,282.1 468.199,282.1C477.299,282.1 484.799,289.3 485.099,298.2C485.099,308 481.899,317.5 478.299,325.2C476.499,328.9 474.799,332 473.499,334C472.899,335.1 472.299,335.8 472.099,336.3C471.999,336.5 471.899,336.8 471.699,336.8C471.699,336.8 471.699,336.9 471.599,336.9C471.599,337 471.499,337.1 471.499,337.1C474.199,333.6 478.499,331.5 483.299,331.5C491.699,331.5 498.299,338.2 498.299,346.3C498.299,349.3 497.499,352 495.899,354.3L495.999,354.3C495.999,354.3 495.999,354.2 496.099,354.2C496.199,354.1 496.199,354.1 496.299,353.8C496.399,353.6 496.699,353.2 496.999,352.8C497.599,352 498.299,350.9 499.099,349.5C500.899,346.6 503.199,342.6 505.499,337.6C510.199,327.8 514.999,313.7 514.999,298L514.999,297.7L515.499,297.7Z" style="fill:rgb(4,24,54);fill-rule:nonzero;"/>
        <path d="M483.398,331.5C478.598,331.5 474.398,333.6 471.598,337.1C469.598,339.6 468.398,342.8 468.398,346.3C468.398,354.4 475.098,361.1 483.398,361.1C488.298,361.1 492.598,358.8 495.298,355.3C495.498,354.9 495.798,354.7 495.998,354.3C497.598,352 498.398,349.3 498.398,346.3C498.398,338.1 491.798,331.5 483.398,331.5Z" style="fill:rgb(183,232,3);fill-rule:nonzero;"/>
    </g>
    <defs>
        <radialGradient id="_Radial1" cx="0" cy="0" r="1" gradientUnits="userSpaceOnUse" gradientTransform="matrix(117.318,0,0,117.241,437.938,309.697)"><stop offset="0" style="stop-color:white;stop-opacity:1"/><stop offset="0.3" style="stop-color:rgb(201,255,224);stop-opacity:0.79"/><stop offset="0.49" style="stop-color:rgb(176,255,207);stop-opacity:0.49"/><stop offset="0.66" style="stop-color:rgb(160,255,200);stop-opacity:0.22"/><stop offset="1" style="stop-color:rgb(155,255,195);stop-opacity:0"/></radialGradient>
        <linearGradient id="_Linear2" x1="0" y1="0" x2="1" y2="0" gradientUnits="userSpaceOnUse" gradientTransform="matrix(237.389,0,0,237.389,319.212,309.706)"><stop offset="0" style="stop-color:rgb(20,244,201);stop-opacity:1"/><stop offset="1" style="stop-color:rgb(6,158,252);stop-opacity:1"/></linearGradient>
        <radialGradient id="_Radial3" cx="0" cy="0" r="1" gradientUnits="userSpaceOnUse" gradientTransform="matrix(125.626,0,0,125.543,437.907,309.749)"><stop offset="0" style="stop-color:rgb(155,255,195);stop-opacity:0"/><stop offset="0.38" style="stop-color:rgb(155,255,195);stop-opacity:0"/><stop offset="0.51" style="stop-color:rgb(160,255,200);stop-opacity:0.18"/><stop offset="0.68" style="stop-color:rgb(176,255,207);stop-opacity:0.42"/><stop offset="0.87" style="stop-color:rgb(201,255,224);stop-opacity:0.67"/><stop offset="1" style="stop-color:white;stop-opacity:0.85"/></radialGradient>
    </defs>
</svg>
