<?xml version="1.0" encoding="UTF-8" standalone="no"?>
<!DOCTYPE svg PUBLIC "-//W3C//DTD SVG 1.1//EN" "http://www.w3.org/Graphics/SVG/1.1/DTD/svg11.dtd">
<svg width="100%" height="100%" viewBox="0 0 492 497" version="1.1" xmlns="http://www.w3.org/2000/svg" xmlns:xlink="http://www.w3.org/1999/xlink" xml:space="preserve" xmlns:serif="http://www.serif.com/" style="fill-rule:evenodd;clip-rule:evenodd;stroke-linejoin:round;stroke-miterlimit:2;">
    <g transform="matrix(1,0,0,1,-11,-9)">
        <path d="M336,144C338.12,144 340.16,143.16 341.656,141.656L435.312,48L449.472,48C452.784,57.288 461.584,64 472,64C485.232,64 496,53.232 496,40C496,26.768 485.232,16 472,16C461.584,16 452.784,22.712 449.472,32L432,32C429.88,32 427.84,32.84 426.344,34.344L332.688,128L320,128L320,120C320,106.768 309.232,96 296,96C282.768,96 272,106.768 272,120L272,144L231.192,144C227.472,125.768 211.32,112 192,112C181.984,112 172.928,115.832 165.904,121.936L91.856,65.392C94.432,60.104 96,54.256 96,48C96,25.944 78.056,8 56,8C33.944,8 16,25.944 16,48C16,70.056 33.944,88 56,88C66.016,88 75.072,84.168 82.096,78.064L156.144,134.608C154.696,137.576 153.488,140.672 152.808,143.992L95.192,143.992C91.472,125.768 75.312,112 56,112C33.944,112 16,129.944 16,152C16,174.056 33.944,192 56,192C66.016,192 75.072,188.168 82.096,182.064L110.816,204L82.096,225.936C75.072,219.832 66.016,216 56,216C33.944,216 16,233.944 16,256C16,278.056 33.944,296 56,296C66.016,296 75.072,292.168 82.096,286.064L110.816,308L82.096,329.936C75.072,323.832 66.016,320 56,320C33.944,320 16,337.944 16,360C16,382.056 33.944,400 56,400C75.312,400 91.472,386.232 95.192,368L152.808,368C153.488,371.32 154.696,374.416 156.144,377.384L82.096,433.928C75.072,427.832 66.016,424 56,424C33.944,424 16,441.944 16,464C16,486.056 33.944,504 56,504C78.056,504 96,486.056 96,464C96,457.744 94.432,451.896 91.856,446.616L165.904,390.072C172.928,396.168 181.984,400 192,400C211.312,400 227.472,386.232 231.192,368L272,368L272,384C272,397.232 282.768,408 296,408C309.232,408 320,397.232 320,384L332.688,384L426.344,477.656C427.84,479.16 429.88,480 432,480L449.472,480C452.784,489.288 461.584,496 472,496C485.232,496 496,485.232 496,472C496,458.768 485.232,448 472,448C461.584,448 452.784,454.712 449.472,464L435.312,464L341.656,370.344C340.16,368.84 338.12,368 336,368L320,368L320,344L356.688,344L418.344,405.656C419.84,407.16 421.88,408 424,408L449.472,408C452.784,417.288 461.584,424 472,424C485.232,424 496,413.232 496,400C496,386.768 485.232,376 472,376C461.584,376 452.784,382.712 449.472,392L427.312,392L365.656,330.344C364.16,328.84 362.12,328 360,328L320,328L320,304L388.688,304L418.344,333.656C419.84,335.16 421.88,336 424,336L449.472,336C452.784,345.288 461.584,352 472,352C485.232,352 496,341.232 496,328C496,314.768 485.232,304 472,304C461.584,304 452.784,310.712 449.472,320L427.312,320L397.656,290.344C396.16,288.84 394.12,288 392,288L320,288L320,264L449.472,264C452.784,273.288 461.584,280 472,280C485.232,280 496,269.232 496,256C496,242.768 485.232,232 472,232C461.584,232 452.784,238.712 449.472,248L320,248L320,224L392,224C394.12,224 396.16,223.16 397.656,221.656L427.312,192L449.472,192C452.784,201.288 461.584,208 472,208C485.232,208 496,197.232 496,184C496,170.768 485.232,160 472,160C461.584,160 452.784,166.712 449.472,176L424,176C421.88,176 419.84,176.84 418.344,178.344L388.688,208L320,208L320,184L360,184C362.12,184 364.16,183.16 365.656,181.656L427.312,120L449.472,120C452.784,129.288 461.584,136 472,136C485.232,136 496,125.232 496,112C496,98.768 485.232,88 472,88C461.584,88 452.784,94.712 449.472,104L424,104C421.88,104 419.84,104.84 418.344,106.344L356.688,168L320,168L320,144L336,144ZM472,32C476.408,32 480,35.584 480,40C480,44.416 476.408,48 472,48C467.592,48 464,44.416 464,40C464,35.584 467.592,32 472,32ZM472,464C476.408,464 480,467.584 480,472C480,476.416 476.408,480 472,480C467.592,480 464,476.416 464,472C464,467.584 467.592,464 472,464ZM472,392C476.408,392 480,395.584 480,400C480,404.416 476.408,408 472,408C467.592,408 464,404.416 464,400C464,395.584 467.592,392 472,392ZM472,320C476.408,320 480,323.584 480,328C480,332.416 476.408,336 472,336C467.592,336 464,332.416 464,328C464,323.584 467.592,320 472,320ZM472,248C476.408,248 480,251.584 480,256C480,260.416 476.408,264 472,264C467.592,264 464,260.416 464,256C464,251.584 467.592,248 472,248ZM472,176C476.408,176 480,179.584 480,184C480,188.416 476.408,192 472,192C467.592,192 464,188.416 464,184C464,179.584 467.592,176 472,176ZM472,104C476.408,104 480,107.584 480,112C480,116.416 476.408,120 472,120C467.592,120 464,116.416 464,112C464,107.584 467.592,104 472,104ZM231.192,160L272,160L272,248L231.192,248C227.472,229.768 211.32,216 192,216C181.984,216 172.928,219.832 165.904,225.936L137.184,204L165.904,182.064C172.928,188.168 181.984,192 192,192C211.312,192 227.472,178.232 231.192,160ZM168,256C168,242.768 178.768,232 192,232C205.232,232 216,242.768 216,256C216,269.232 205.232,280 192,280C178.768,280 168,269.232 168,256ZM192,128C205.232,128 216,138.768 216,152C216,165.232 205.232,176 192,176C178.768,176 168,165.232 168,152C168,138.768 178.768,128 192,128ZM56,72C42.768,72 32,61.232 32,48C32,34.768 42.768,24 56,24C69.232,24 80,34.768 80,48C80,61.232 69.232,72 56,72ZM56,176C42.768,176 32,165.232 32,152C32,138.768 42.768,128 56,128C69.232,128 80,138.768 80,152C80,165.232 69.232,176 56,176ZM91.856,169.384C93.304,166.416 94.512,163.32 95.192,160L152.808,160C153.488,163.32 154.696,166.416 156.144,169.384L124,193.936L91.856,169.384ZM156.144,238.616C154.696,241.584 153.488,244.68 152.808,248L95.192,248C94.512,244.68 93.304,241.584 91.856,238.616L124,214.072L156.144,238.616ZM56,280C42.768,280 32,269.232 32,256C32,242.768 42.768,232 56,232C69.232,232 80,242.768 80,256C80,269.232 69.232,280 56,280ZM91.856,273.384C93.304,270.416 94.512,267.32 95.192,264L152.808,264C153.488,267.32 154.696,270.416 156.144,273.384L124,297.936L91.856,273.384ZM152.808,352L95.192,352C94.512,348.68 93.304,345.584 91.856,342.616L124,318.072L156.144,342.616C154.696,345.584 153.488,348.68 152.808,352ZM56,384C42.768,384 32,373.232 32,360C32,346.768 42.768,336 56,336C69.232,336 80,346.768 80,360C80,373.232 69.232,384 56,384ZM56,488C42.768,488 32,477.232 32,464C32,450.768 42.768,440 56,440C69.232,440 80,450.768 80,464C80,477.232 69.232,488 56,488ZM192,384C178.768,384 168,373.232 168,360C168,346.768 178.768,336 192,336C205.232,336 216,346.768 216,360C216,373.232 205.232,384 192,384ZM231.192,352C227.472,333.768 211.32,320 192,320C181.984,320 172.928,323.832 165.904,329.936L137.184,308L165.904,286.064C172.928,292.168 181.984,296 192,296C211.312,296 227.472,282.232 231.192,264L272,264L272,352L231.192,352ZM304,384C304,388.416 300.408,392 296,392C291.592,392 288,388.416 288,384L288,120C288,115.584 291.592,112 296,112C300.408,112 304,115.584 304,120L304,384Z" style="fill:white;fill-rule:nonzero;"/>
        <rect x="240" y="184" width="16" height="16" style="fill:white;fill-rule:nonzero;"/>
        <rect x="240" y="216" width="16" height="16" style="fill:white;fill-rule:nonzero;"/>
        <rect x="240" y="280" width="16" height="16" style="fill:white;fill-rule:nonzero;"/>
        <rect x="240" y="312" width="16" height="16" style="fill:white;fill-rule:nonzero;"/>
    </g>
</svg>
