<?xml version="1.0" encoding="UTF-8" standalone="no"?>
<!DOCTYPE svg PUBLIC "-//W3C//DTD SVG 1.1//EN" "http://www.w3.org/Graphics/SVG/1.1/DTD/svg11.dtd">
<svg width="100%" height="100%" viewBox="0 0 182 137" version="1.1" xmlns="http://www.w3.org/2000/svg" xmlns:xlink="http://www.w3.org/1999/xlink" xml:space="preserve" xmlns:serif="http://www.serif.com/" style="fill-rule:evenodd;clip-rule:evenodd;stroke-linejoin:round;stroke-miterlimit:1.41421;">
    <g>
        <path d="M140.107,80.628C131.786,80.628 123.989,77.105 116.905,71.37L118.63,63.274L118.705,62.974C120.241,54.353 125.114,39.885 140.107,39.885C151.351,39.885 160.497,49.031 160.497,60.275C160.459,71.482 151.314,80.628 140.107,80.628ZM140.107,19.233C120.953,19.233 106.111,31.677 100.076,52.142C90.856,38.311 83.884,21.707 79.799,7.726L59.184,7.726L59.184,61.362C59.184,71.932 50.563,80.553 39.993,80.553C29.423,80.553 20.802,71.932 20.802,61.362L20.802,7.726L0.187,7.726L0.187,61.362C0.112,83.327 17.991,101.355 39.955,101.355C61.92,101.355 79.799,83.327 79.799,61.362L79.799,52.367C83.809,60.725 88.719,69.158 94.679,76.655L82.047,136.026L103.15,136.026L112.295,92.959C120.316,98.094 129.537,101.318 140.107,101.318C162.708,101.318 181.112,82.802 181.112,60.2C181.112,37.636 162.708,19.233 140.107,19.233Z" style="fill:white;fill-rule:nonzero;"/>
        <path d="M244.043,21.557L257.349,75.193L272.005,21.557L289.471,21.557L266.945,99.069L249.478,99.069L235.647,45.095L221.854,99.031L204.388,99.031L181.861,21.519L199.328,21.519L213.983,75.155L227.289,21.519L244.043,21.519L244.043,21.557ZM331.263,19.233C308.587,19.233 290.221,37.636 290.221,60.275C290.221,82.952 308.624,101.318 331.263,101.318C353.94,101.318 372.343,82.952 372.343,60.275C372.343,37.599 353.94,19.233 331.263,19.233ZM331.263,84.451C317.92,84.451 307.125,73.656 307.125,60.313C307.125,46.969 317.957,36.175 331.263,36.175C344.607,36.175 355.401,46.969 355.401,60.313C355.401,73.619 344.607,84.451 331.263,84.451ZM422.231,38.911C410.5,38.911 401.017,48.431 401.017,60.125L401.017,99.031L383.438,99.031L383.438,21.557L401.017,21.557L401.017,33.476C401.017,33.476 408.513,21.519 423.918,21.519L429.315,21.519L429.315,38.911L422.231,38.911ZM481.228,57.277C493.709,50.23 502.18,36.849 502.18,21.519L484.601,21.519C484.601,34.45 474.106,44.945 461.175,44.945L458.813,44.945L458.813,-15.85L441.235,-15.85L441.235,99.031L458.813,99.031L458.813,62.524L460.912,62.524C462.637,62.524 464.886,63.649 465.898,65.035L490.86,99.031L511.925,99.031L481.228,57.277Z" style="fill-rule:nonzero;"/>
    </g>
</svg>
