<?xml version="1.0" encoding="UTF-8" standalone="no"?><!DOCTYPE svg PUBLIC "-//W3C//DTD SVG 1.1//EN" "http://www.w3.org/Graphics/SVG/1.1/DTD/svg11.dtd"><svg width="100%" height="100%" viewBox="0 0 500 400" version="1.1" xmlns="http://www.w3.org/2000/svg" xmlns:xlink="http://www.w3.org/1999/xlink" xml:space="preserve" xmlns:serif="http://www.serif.com/" style="fill-rule:evenodd;clip-rule:evenodd;stroke-linejoin:round;stroke-miterlimit:1.41421;"><rect x="0" y="0" width="500" height="400" style="fill:#79b5c7;"/><path id="icon" d="M187.375,191.8l-27.75,0c-2.554,0 -4.625,-1.79 -4.625,-4c0,-2.208 2.071,-4 4.625,-4l27.75,0c2.554,0 4.625,1.792 4.625,4c0,2.208 -2.066,3.996 -4.625,4Zm-16.65,-15.999l-11.1,0c-2.554,0 -4.625,-1.792 -4.625,-4.001c0,-2.209 2.071,-3.999 4.625,-3.999l11.1,0c2.554,0 4.625,1.79 4.625,3.999c0,2.207 -2.066,3.997 -4.625,4.001Zm16.65,-16.001l-27.75,0c-2.554,0 -4.625,-1.791 -4.625,-4c0,-2.209 2.071,-4 4.625,-4l27.75,0c2.554,0 4.625,1.791 4.625,4c0,2.207 -2.066,3.997 -4.625,4Z" style="fill:#fff;"/><text x="200.882px" y="191.762px" style="font-family:'MongolianBaiti', 'Mongolian Baiti', cursive;font-size:59.448px;fill:#fff;">E<tspan x="237.552px 277.593px 314.262px " y="191.762px 191.762px 191.762px ">REN</tspan></text><rect x="0" y="106" width="500" height="10" style="fill:#fff;"/><rect x="0" y="228.8" width="500" height="10" style="fill:#fff;"/></svg>