<?xml version="1.0" encoding="UTF-8" standalone="no"?>
<!DOCTYPE svg PUBLIC "-//W3C//DTD SVG 1.1//EN" "http://www.w3.org/Graphics/SVG/1.1/DTD/svg11.dtd">
<svg width="100%" height="100%" viewBox="0 0 480 480" version="1.1" xmlns="http://www.w3.org/2000/svg" xmlns:xlink="http://www.w3.org/1999/xlink" xml:space="preserve" xmlns:serif="http://www.serif.com/" style="fill-rule:evenodd;clip-rule:evenodd;stroke-linejoin:round;stroke-miterlimit:1.41421;">
    <rect x="232" y="400" width="16" height="16" style="fill:white;"/>
    <path d="M472,416L464,416L464,128C464,110.327 449.673,96 432,96L384,96L384,32C384,14.327 369.673,0 352,0L128,0C110.327,0 96,14.327 96,32L96,96L48,96C30.327,96 16,110.327 16,128L16,416L8,416C3.582,416 0,419.582 0,424L0,448C0,465.673 14.327,480 32,480L448,480C465.673,480 480,465.673 480,448L480,424C480,419.582 476.418,416 472,416ZM112,32C112,23.163 119.163,16 128,16L352,16C360.837,16 368,23.163 368,32L368,64L112,64L112,32ZM112,80L368,80L368,312C368,320.837 360.837,328 352,328L128,328C119.163,328 112,320.837 112,312L112,80ZM128,344L352,344C369.673,344 384,329.673 384,312L384,144L416,144L416,368L64,368L64,144L96,144L96,312C96,329.673 110.327,344 128,344ZM32,128C32,119.163 39.163,112 48,112L96,112L96,128L56,128C51.582,128 48,131.582 48,136L48,376C48,380.418 51.582,384 56,384L424,384C428.418,384 432,380.418 432,376L432,136C432,131.582 428.418,128 424,128L384,128L384,112L432,112C440.837,112 448,119.163 448,128L448,416L312,416C309.88,415.998 307.845,416.839 306.344,418.336L292.688,432L187.312,432L173.656,418.336C172.155,416.839 170.12,415.998 168,416L32,416L32,128ZM464,448C464,456.837 456.837,464 448,464L32,464C23.163,464 16,456.837 16,448L16,432L164.688,432L178.344,445.656C179.844,447.156 181.878,448 184,448L296,448C298.122,448 300.156,447.156 301.656,445.656L315.312,432L464,432L464,448Z" style="fill:white;fill-rule:nonzero;"/>
    <rect x="136" y="256" width="208" height="16" style="fill:white;"/>
    <rect x="136" y="288" width="192" height="16" style="fill:white;"/>
    <rect x="184" y="224" width="160" height="16" style="fill:white;"/>
    <rect x="128" y="32" width="16" height="16" style="fill:white;"/>
    <rect x="160" y="32" width="16" height="16" style="fill:white;"/>
    <rect x="192" y="32" width="16" height="16" style="fill:white;"/>
    <rect x="152" y="224" width="16" height="16" style="fill:white;"/>
    <path d="M212.8,134.4L203.2,121.6L171.2,145.6C167.665,148.251 166.949,153.265 169.6,156.8C170.055,157.406 170.594,157.945 171.2,158.4L203.2,182.4L212.8,169.6L189.336,152L212.8,134.4Z" style="fill:white;fill-rule:nonzero;"/>
    <path d="M310.4,147.2C309.945,146.594 309.406,146.055 308.8,145.6L276.8,121.6L267.2,134.4L290.664,152L267.2,169.6L276.8,182.4L308.8,158.4C312.335,155.749 313.051,150.735 310.4,147.2Z" style="fill:white;fill-rule:nonzero;"/>
    <g transform="matrix(0.3715,-0.9284,0.9284,0.3715,9.7248,318.365)">
        <rect x="196.925" y="144" width="86.16" height="16" style="fill:white;"/>
    </g>
</svg>
