<?xml version="1.0" encoding="UTF-8" standalone="no"?><!DOCTYPE svg PUBLIC "-//W3C//DTD SVG 1.1//EN" "http://www.w3.org/Graphics/SVG/1.1/DTD/svg11.dtd"><svg width="100%" height="100%" viewBox="0 0 432 463" version="1.1" xmlns="http://www.w3.org/2000/svg" xmlns:xlink="http://www.w3.org/1999/xlink" xml:space="preserve" xmlns:serif="http://www.serif.com/" style="fill-rule:evenodd;clip-rule:evenodd;stroke-linejoin:round;stroke-miterlimit:1.41421;"><g id="_x31_29-fiverr"><path d="M371.696,375.751l0,-230.001l-229.376,0l0,-14.375c0,-23.779 19.295,-43.124 43.004,-43.124l43.008,0l0,-86.25l-43.008,0c-71.134,0 -129.019,58.044 -129.019,129.374l0,14.375l-57.343,0l0,86.25l57.342,0l0,143.751l-57.342,0l0,86.248l200.705,0l0,-86.248l-57.347,0l0,-143.751l144.157,0l0,143.751l-58.145,0l0,86.248l200.705,0l0,-86.248l-57.341,0Z" style="fill:#fff;fill-rule:nonzero;"/><path d="M328.685,88.251c23.751,0 43.012,-19.306 43.012,-43.125c0,-23.821 -19.261,-43.125 -43.012,-43.124c-23.749,0 -43.005,19.303 -43.005,43.124c0,23.819 19.256,43.125 43.005,43.125Z" style="fill:#fff;fill-rule:nonzero;"/></g></svg>