<?xml version="1.0" encoding="UTF-8" standalone="no"?><!DOCTYPE svg PUBLIC "-//W3C//DTD SVG 1.1//EN" "http://www.w3.org/Graphics/SVG/1.1/DTD/svg11.dtd"><svg width="100%" height="100%" viewBox="0 0 99 98" version="1.1" xmlns="http://www.w3.org/2000/svg" xmlns:xlink="http://www.w3.org/1999/xlink" xml:space="preserve" xmlns:serif="http://www.serif.com/" style="fill-rule:evenodd;clip-rule:evenodd;stroke-linejoin:round;stroke-miterlimit:1.41421;"><g><path d="M12.603,1.839c6.146,0 11.138,4.993 11.138,11.14c0,6.151 -4.992,11.146 -11.138,11.146c-6.158,0 -11.144,-4.995 -11.144,-11.146c0,-6.147 4.986,-11.14 11.144,-11.14Zm-9.613,30.739l19.219,0l0,61.837l-19.219,0l0,-61.837Z" style="fill:#fff;fill-rule:nonzero;"/><path d="M34.263,32.578l18.436,0l0,8.448l0.256,0c2.565,-4.86 8.834,-9.987 18.184,-9.987c19.461,0 23.054,12.807 23.054,29.457l0,33.919l-19.205,0l0,-30.071c0,-7.175 -0.132,-16.398 -9.987,-16.398c-10.002,0 -11.533,7.812 -11.533,15.878l0,30.591l-19.205,0l0,-61.837" style="fill:#fff;fill-rule:nonzero;"/></g></svg>